<svg xmlns="http://www.w3.org/2000/svg" width="1920" height="1920" viewBox="0 0 1920 1920" version="1.1"><path d="" stroke="none" fill="#f4fcfc" fill-rule="evenodd"/><path d="M 479.750 959.500 C 215.887 1487.225, -0 1919.225, -0 1919.500 C -0 1919.775, 50.625 1920, 112.499 1920 L 224.998 1920 274.875 1820.250 C 302.307 1765.388, 324.695 1720.163, 324.626 1719.751 C 324.461 1718.771, 959.345 449, 960 449 C 960.275 449, 1069.063 666.125, 1201.750 931.500 L 1443 1414 1381.749 1414 L 1320.498 1414 1141 1055 C 1042.276 857.550, 961.276 696, 961.001 696 C 960.509 696, 502 1612.518, 502 1613.500 C 502 1613.775, 736.224 1614, 1022.498 1614 L 1542.996 1614 1569.500 1667 L 1596.004 1720 1021.250 1720 L 446.495 1720 396.748 1819.501 C 369.386 1874.227, 347 1919.227, 347 1919.502 C 347 1919.777, 701 1919.888, 1133.667 1919.751 C 1803.990 1919.537, 1920.402 1919.295, 1920.796 1918.111 C 1921.051 1917.347, 1920.847 1916.977, 1920.343 1917.288 C 1919.839 1917.600, 1703.668 1486.337, 1439.964 958.927 C 1176.259 431.517, 960.276 -0, 960 -0 C 959.725 -0, 743.612 431.775, 479.750 959.500" stroke="none" fill="#fcfcfc" fill-rule="evenodd"/></svg>